<svg id="Layer_1" data-name="Layer 1" xmlns="http://www.w3.org/2000/svg" viewBox="0 0 1024 1024"><defs><style>.cls-1,.cls-2{fill:#f9ed32;}.cls-1{stroke:#000;stroke-miterlimit:10;stroke-width:40px;}</style></defs><path d="M677.07,518.94c14.92.84,29.85,1.71,44.75,2.94q10.74.89,21.45,2.07,5.36.6,10.68,1.3c-3.73-.49,2.11.31,2.31.34,2.06.31,4.12.62,6.18.95A355.25,355.25,0,0,1,805,535.85q10.21,2.94,20.18,6.66,2.49.93,5,1.92c.09,0,5.46,2.31,2.26.92,3.63,1.57,7.23,3.23,10.77,5q7.37,3.69,14.37,8,3.86,2.37,7.58,4.91c1.24.85,2.48,1.72,3.7,2.6.59.42,5.72,4.29,2.39,1.71a179,179,0,0,1,27.06,26c.8.95,1.59,1.92,2.37,2.89.59.73,2.58,3.45.38.47,1.76,2.39,3.5,4.79,5.15,7.25a146.18,146.18,0,0,1,9.57,16.54c.64,1.31,1.23,2.64,1.87,4,2.13,4.38-1.28-3.47.48,1.06,1,2.71,2.08,5.42,3,8.18a142.2,142.2,0,0,1,4.43,18.3c.88,4.79-.27-3.89.13,1,.07,1,.19,1.93.27,2.9q.36,4.38.37,8.79t-.33,8.87c-.11,1.47-.28,2.93-.43,4.4.47-4.78-.26,1.55-.43,2.45a118.67,118.67,0,0,1-4.35,16.82c-.46,1.37-1,2.73-1.46,4.08-.24.66-2.09,5.15-.34,1.06-1.33,3.11-2.79,6.16-4.35,9.16a148.4,148.4,0,0,1-8.2,13.78c-1.63,2.45-3.36,4.82-5.11,7.2-2.91,4,2.36-2.75-.82,1-1.28,1.52-2.51,3.06-3.81,4.56a206.78,206.78,0,0,1-27.17,26c-.43.34-4.45,3.4-1.15.92-1.22.92-2.43,1.83-3.66,2.73q-3.07,2.24-6.21,4.38-8.12,5.56-16.66,10.49c-5.33,3.08-10.77,6-16.3,8.69q-4.69,2.31-9.47,4.49-2.38,1.08-4.79,2.13L808,799.51c1.62-.68,1.44-.62-.54.2a387.52,387.52,0,0,1-82.41,22.41c-5.68.9,3.56-.39-2.14.31-1.74.21-3.47.43-5.21.62q-4.34.48-8.69.87-11.32,1-22.68,1.26a352.92,352.92,0,0,1-43.62-1.64c-3.48-.35-7-.74-10.41-1.2,3.85.51-1.85-.28-2.14-.33l-3.45-.54q-11.33-1.82-22.49-4.4a419.83,419.83,0,0,1-43.45-12.61q-9.84-3.4-19.55-7.2-4.63-1.8-9.26-3.68l-5-2.08q-3-1.25-.72-.29l-3.34-1.43c-13.95-6-27.72-12.36-41.43-18.88-27-12.81-53.7-26.21-81-38.27-56.68-25-117.42-45.72-180.2-43.56-32,1.11-60.49,10.39-90.33,10-3.07,0-6.14-.18-9.2-.45-.66-.06-5.76-.71-1.32-.07-1.52-.22-3-.47-4.55-.76q-4.12-.78-8.18-1.93-1.83-.51-3.63-1.11c-.75-.25-6.7-2.66-2.74-.9a72.57,72.57,0,0,1-8-4.13c-1.28-.78-2.5-1.64-3.75-2.45-4-2.59,2.35,2.42-1.07-.87-2.16-2.08-4.25-4.12-6.28-6.33-3.12-3.39,1.73,3-.65-.89-1-1.62-2.06-3.16-3-4.82-.68-1.24-1.28-2.52-1.92-3.78-2.08-4.13,1,3.5-.33-.93-.83-2.74-1.76-5.4-2.39-8.19-.31-1.4-.55-2.81-.82-4.22-.9-4.69.13,3.85-.08-.93-.12-2.91-.36-5.79-.32-8.71s.3-5.85.56-8.78c-.42,4.6.06-.24.2-1,.25-1.45.54-2.89.87-4.33q1-4.31,2.31-8.51c.45-1.39.93-2.78,1.44-4.15.34-.91.69-1.82,1.06-2.72q-1.32,3.12-.06.27a143.58,143.58,0,0,1,8.6-15.49q1.22-1.85,2.49-3.64c.36-.51,3.34-4.41.7-1.06q2.73-3.47,5.67-6.74a139.12,139.12,0,0,1,12.66-12.34c1.12-1,2.28-1.89,3.41-2.85,3.77-3.19-2.95,2.07,1.05-.83,2.81-2,5.64-4.07,8.56-6a173.33,173.33,0,0,1,15.58-9q4-2.06,8.15-3.91c.55-.25,5.2-2.19,1.24-.58,1.4-.57,2.8-1.13,4.21-1.67A203.46,203.46,0,0,1,187.75,544c1.88-.33,3.77-.65,5.66-.94,0,0,6.15-.83,2.78-.41,3.79-.48,7.59-.86,11.39-1.18,7.62-.63,15.25-1,22.89-1.05,16-.2,32,.67,47.94,2,15.34,1.31,30.64,3.09,45.93,4.88,9.38,1.1,18.4-9.07,18-18-.48-10.69-7.95-16.83-18-18-62.08-7.27-128.31-14.43-187.73,10C85.19,542.38,39.09,585.41,35.82,644c-1.66,29.76,10.76,58.5,35.77,75.26,25.69,17.21,58.28,17.55,87.77,13.59,8.29-1.11,16.54-2.46,24.79-3.81,4-.66,8.08-1.31,12.13-1.9.94-.14,1.87-.28,2.81-.4-.41,0-2.24.28-.11,0s4.35-.51,6.53-.72a255.17,255.17,0,0,1,47.63,0q5.48.5,10.92,1.21c-2.74-.37,1.7.26,2.48.38q3.18.5,6.34,1,11.81,2.07,23.43,4.93a455.07,455.07,0,0,1,45.27,13.8q11.42,4.1,22.65,8.66l5.18,2.12c.6.25,4.73,2,2.58,1.07q6,2.55,11.95,5.2c14.23,6.31,28.31,13,42.34,19.74,29.06,14,58,28.1,87.73,40.6,28.63,12.05,58.06,22.42,88.53,28.7a371.16,371.16,0,0,0,91.66,7.39c60.1-2.75,121.53-19.39,172.88-51.27C913,781.1,953.56,737.45,961,682c7.42-55.21-22.89-107.74-65.53-140.82C845.73,502.61,783.15,491,721.82,485.88c-14.9-1.23-29.83-2.1-44.75-2.94-9.42-.53-18.42,8.66-18,18,.46,10.21,7.91,17.43,18,18Z"/><path d="M416.58,81.92C404,99,398.33,121.74,400.81,142.77a90.75,90.75,0,0,0,10.75,34.06c5.35,9.59,12.38,18.1,17.95,27.56,1.14,1.92,2.14,3.9,3.18,5.87,2.3,4.37-.4-1.88.41.94.37,1.3.91,2.56,1.29,3.87a43.94,43.94,0,0,1,1.42,6.31c-.51-3.72-.18-.19-.16.77,0,.61-.42,5.38,0,3.07s-2.64,6.08-.56,2.22c-.58,1.08-1.28,2.09-1.87,3.15-1.19,2.13,2.89-2.62-.18.08-1.36,1.2-2.61,2.53-4,3.69,3.08-2.55.6-.55-.27,0-1.16.78-2.35,1.53-3.55,2.26-8.46,5.15-17.12,9.63-24.57,16.29-8.62,7.72-14.91,18.51-18.11,29.57-7.87,27.18,4.13,55.26,26.93,71,7.78,5.35,20.31,1.7,24.62-6.46,4.84-9.16,1.85-18.92-6.45-24.63-2.79-1.92-.55-.34,0,.1-1-.81-1.91-1.65-2.82-2.53-.72-.71-1.42-1.44-2.1-2.2s-2.49-3.44-.5-.5a58.36,58.36,0,0,1-3.19-5.17c-.47-.9-.91-1.81-1.33-2.73,1.7,3.67-.15-.8-.32-1.38a52.17,52.17,0,0,1-1.37-5.91c.67,3.7.14,1.13.16.26,0-1.27-.08-2.53,0-3.8,0-.58.11-3.82,0-1.38-.15,2.77.38-1.95.41-2.1.5-2.25,1.25-4.37,2-6.54.85-2.61-2.07,3.38.34-.56.53-.86,1-1.79,1.48-2.66s1.08-1.71,1.64-2.55c1.87-2.82.42-.48-.05,0,1.55-1.68,3.25-3.2,4.81-4.85,1.84-1.94-2.42,1.59-.29.17,1-.65,1.92-1.35,2.91-2,8-5.25,16.53-9.43,24.11-15.42,18.5-14.63,22.23-39.26,13.85-60.55-4.07-10.34-9.92-19.24-16.19-28.34-2.78-4-5.53-8.1-8-12.36-1.24-2.2-2.39-4.44-3.44-6.74.3.65,1.19,3.25.11.06-.49-1.44-1-2.87-1.41-4.33-.71-2.44-1.22-4.92-1.71-7.41-.17-.9-.19-3.38,0,.27-.08-1.52-.27-3-.34-4.55a71.53,71.53,0,0,1,.07-7.61c.06-1,.16-2,.24-3,.34-3.9-.78,2.91.23-1.24.54-2.23.95-4.46,1.58-6.67.35-1.21.73-2.42,1.15-3.62.15-.44,1.65-4.35.73-2.11-1,2.51,1-2,1-2,.57-1.13,1.17-2.25,1.79-3.35a71.84,71.84,0,0,1,4.6-7c5.61-7.61,1.52-20.42-6.46-24.63-9.38-5-18.64-1.67-24.62,6.46Z"/><path d="M547.69,176.58c-17.45,5.49-27.39,21.23-28.77,38.94S527.73,249,538.62,262c4.65,5.53,9.67,10.72,14.29,16.28.38.45,2,2.74.24.28.47.68,1,1.34,1.44,2,.93,1.36,1.81,2.74,2.64,4.17.49.85,2.66,5.39,1.42,2.33a33.9,33.9,0,0,1,1.53,4.8c0,.14.42,2,.43,2-.28,0-.22-4.58-.17-.69,0,1.38,0,2.74,0,4.12-.1,3.39.83-2.63-.17.58a10.78,10.78,0,0,1-.76,2.56c.5-.32,1.64-2.91.22-.68a12.47,12.47,0,0,0-1,1.68c-.65,1.64.51-.82.84-1.06-.61.46-1.3,1.28-1.88,1.83.51-.48,2.65-1.41.77-.79a21.38,21.38,0,0,0-2.27,1.19c.43-.2,2.2-.7.31-.23a51.1,51.1,0,0,0-6.4,2.34c-11.37,4.6-21.43,12.44-23.17,25.37a26,26,0,0,0,18,28.72c8.94,3,20.06-3.44,22.14-12.57,2.27-9.94-3-19-12.57-22.15,4.22,1.41,8,4.92,8,9.56,0,.23-1.89,7.95-3.31,6.52,0,0,4.73-2.67,1.17-1,2.08-1,4.36-1.53,6.5-2.33,10-3.72,18.72-9.23,23.95-18.88,9-16.56,6.51-36.32-2.9-52.08-4.74-7.95-11-15-17.2-21.85-2.61-2.88-5.16-5.81-7.7-8.76-1.3-1.63-1.4-1.73-.28-.3-.67-.89-1.31-1.79-1.94-2.71-.94-1.37-1.83-2.76-2.66-4.2-.39-.68-3-6.58-1.7-3.09-.54-1.5-2.13-4.71-1.77-6.31l.28,2.2c-.08-.88-.12-1.76-.12-2.63s0-1.77.11-2.65c-.4,2.59-.41,2.87,0,.86.16-.51,1.8-5.43.71-2.85s1-2.24,1.52-2.4c-1.57,1.93-1.72,2.16-.43.69q2.16-2-.81.37a17.25,17.25,0,0,1,2.14-1.31c-2.4.91-2.65,1-.75.41,9-2.82,15.64-12.66,12.57-22.14-2.91-9-12.52-15.6-22.14-12.57Z"/><path class="cls-1" d="M396,639c87.6,30.79,168.64,28.18,225,0,18-9,34.73-20,45-36,14.57-22.68,6.09-51.39,0-72-4.47-15.14-20.26-65.68-72-99-7.61-4.9-41.36-25.76-90-27-14.9-.38-57-.86-99,27-11.7,7.76-48.26,32.82-63,81-3.36,11-19.47,63.65,9,99C358.26,621,368.88,629.47,396,639Z"/><path class="cls-2" d="M781.29,668.16a68.54,68.54,0,0,0-31-10.23c-9.18-.74-21.51-.35-28.52,6.55-7.83,7.69-5.43,19.71,4.26,24.39,4.41,2.12,9.35,2.41,14.15,2.85l19.5,1.79c5,.46,10.76,1.5,15.47-1,4.27-2.3,7.1-7.08,6.19-12-2-10.73-17.34-9.21-25.29-9.8-8.42-.62-25.66-4.83-27.78,7.46s15.74,12.87,23.57,14.3c5.34,1,12.2,3.42,17.59,1.52a9,9,0,0,0,5.42-12.08c-2.51-6.07-9-6.66-14.68-7.41l-21.3-2.81c-5-.66-8.17,7.15-4.24,10.24,9.64,7.56,31.07,13,36.91-2.39a9.56,9.56,0,0,0,.76-2.78c-1.27.34-1.23.66.13,1,.74,1,2.39,1.85,3.36,2.74,2,1.82,6.61,5.77,2.69,7.72-2.65,1.33-6.73.62-9.51.4a79,79,0,0,1-12-2,85.08,85.08,0,0,1-22.43-8.85c-1.87-1.08-8-4-7.85-6.79.18-3.57,7.92-2.59,10.21-2.51a135.23,135.23,0,0,1,26.71,3.74c6.74,1.64,18.22,4,18.14,12.84-.07,7.72,11.93,7.73,12,0,.2-20.87-26.21-25.06-42-27.22-9-1.23-21.08-3.63-29.51.85a13.71,13.71,0,0,0-5.3,19.72c4.74,7.45,14.32,11.64,22.14,14.93a97.83,97.83,0,0,0,27.23,7c7.35.81,16.39,1.23,22-4.54,6.43-6.61,3.37-16.16-2.29-22s-15.45-12.78-22.74-5.32c-2.87,2.94-1.7,7.5-6.07,8.67-4.74,1.28-10.47-.73-14.22-3.67l-4.24,10.25,13,1.71,5.56.73c1.07.15,4.65,1.09,5.64.78q5.05-4.62,1.4-4.29l-2.82-.52-6.58-1.2c-3.76-.69-7.53-1.36-11.29-2.07-.23,0-3.91-1.18-4.29-1-.51,3,.37,4.24,2.65,3.83l2.79.2,12.09.89c3.64.27,8,1.23,11.57.86a6.24,6.24,0,0,1,1.6.33c-.24-1.81-1.11-2.43-2.63-1.86-1.47-.43-3.55-.23-5-.37-8-.72-16.11-1.4-24.15-2.21-2.64-.26-6.47-.29-8.43-2.34-2.9-3,1.85-5.45,4.32-6.22,13.4-4.19,29.52.36,41,7.53,6.56,4.11,12.59-6.27,6-10.36Z"/><path class="cls-2" d="M844.7,622.09c-14.05-3.17-29.92-9-44.45-6.58-11.69,2-22.52,12.13-20.76,24.7,2,13.95,16,20.38,28.06,23.74a95.36,95.36,0,0,0,44.83,1.63c11.25-2.39,22.64-11.23,17.63-24-5.23-13.32-23.24-16.13-35.23-20.16-11.7-3.94-28.62-12.7-39.11-1.7-4.33,4.54-4.87,11.23-2.19,16.75,2.88,5.92,8.67,9.14,14.61,11.33a71.5,71.5,0,0,0,21.57,4.16c5.81.26,13.76.62,18.34-3.68a9.56,9.56,0,0,0-.38-14.49c-5-4.25-12.53-3.88-18.63-4.45-8.34-.77-32.41-5.15-29.1,11.17,1.12,5.53,6.63,8.44,11.66,9.68,7.66,1.87,15.7,3.19,23.49,4.42,6.18,1,12.8,0,15.82-6.14,2.8-5.75-.5-12-6.46-13.81-6.85-2.06-15.51-.68-22.58-.68-5.75,0-12.78-.55-17,4.26s-2.67,11.63,1.95,15.41c5.26,4.31,13.25,3.43,19.61,3.64,7.07.24,15.45,1.8,22.4.24,6.08-1.36,10.63-7.68,7.63-13.77s-12.51-6.76-18.11-8.32c-7.93-2.21-15.86-4.46-23.81-6.63-5.59-1.53-12.41-2.83-17.2,1.45s-4,11.29,0,15.82c4.43,5,11.66,7.81,17.87,9.88,5.61,1.87,13.18,4.22,19,2.33a8.55,8.55,0,0,0,4-13.69c-4.19-5-12.32-4.62-18.16-5.36l-24.28-3c-4.68-.59-7.28,5.47-5.19,9l2.25,3.81c3.92,6.65,14.29.62,10.36-6.06l-2.24-3.8-5.18,9L822,651.47c1.64.2,4.71,1.21,6.38.85,1.88-.4.15,3.63,1.52-2.58,1.92-8.77,1.25-1.8,0-2.81-.92-.75-4.24-.61-5.6-.91q-3-.67-6-1.65c-4-1.33-7.28-3.6-11-5.24-1.52-.66-.13-.76-1.62-.39-2.14.52.4.62.27.54,1.1.66,4,.72,5.34,1.08,8.59,2.35,17.15,4.78,25.72,7.17l5.71,1.59c.86.24,2.64,1.22,3.34.94l.49.15-.31-4.38c-.37-.36-3.83,0-4.36,0l-7.76-.26-12.6-.42c-1.82-.06-4-.51-5.75-.29-1.6.19-.56-1.07-1.82.59-1.39,1.83.37.47,1.15.62,3.53.67,8-.07,11.68-.07h7c1.77,0,4.67.59,6.33,0l1.07.21-1.57-3.14a9.7,9.7,0,0,0-2.2-.19c-2.18-.29-4.37-.82-6.54-1.22-4.54-.86-9.09-1.69-13.63-2.57-1.37-.26-2.93-.85-4.32-1-.28,0-1-.62-1.22-.56a1.42,1.42,0,0,0-.37,2.53c.41.21,2.46-.14,3-.11,2.38.12,4.76.43,7.13.65l12.19,1.13c1.28.12,3.43.8,4.65.56l1.24.38-.12-3.17a14.21,14.21,0,0,0-2.64.35,60.83,60.83,0,0,1-23.94-3.12c-2.93-1-6.73-2.28-8.39-5.13s.45-4.86,3.36-5.29c4-.59,8.5,1.5,12.18,2.74l12.46,4.19c7.27,2.44,16.26,4.09,22.67,8.43,2.16,1.46,5,4.28,3.86,7.18-.94,2.44-4.34,3.62-6.62,4.33-7.24,2.24-15.33,2.5-22.84,2.18a78.65,78.65,0,0,1-27-5.73c-5.8-2.47-14.31-8.45-10.35-15.79s14.09-7.51,21.31-6.36c9.4,1.5,18.71,4.06,28,6.15,7.52,1.7,10.73-9.87,3.19-11.57Z"/><path class="cls-2" d="M856.31,705.1c-12.19-5.92-27.31-10.37-41-8-11.52,2-21.68,14.78-12.78,25.53,7.72,9.32,24.24,9.94,35.33,10,10.12,0,32.32-1.93,27.47-17.91-1.69-5.56-6.89-8.37-12.09-9.86-7.42-2.12-15.2-4-22.78-5.42-5.7-1.1-11.91-.84-15.6,4.32a13.41,13.41,0,0,0,0,15.14c3.35,5.1,9.48,7.26,15.31,7.66,6,.42,15.17.28,17-7,1.49-5.86-3.3-9.84-8.59-10.38-3.54-.36-7.23-.12-10.79-.14-3.78,0-8.19-.68-11.86.48a8.36,8.36,0,0,0-2.07,15.16c2.55,1.7,5.54,2.15,8.48,2.73L835.5,730c7.06,1.38,15.71,2.53,20.16-4.66a10.18,10.18,0,0,0-6.09-15.2c-7.49-1.88-10.68,9.69-3.19,11.57q.27-3.67-2.25-2.47a14.71,14.71,0,0,1-3.56-.44c-1.89-.3-3.76-.74-5.64-1.12-4-.78-9.07-2.79-13.14-2.6q-4.1-1.68-1.65,5.88l3.84,0,5.75,0c1,0,7.14.72,7.67.06l-.76-6.65c-1.08.07-2.16.12-3.23.15-2.1,0-7.79.21-8.77-2.62-.91-2.65,4.81-.49,5.83-.25,2.6.61,23.49,4.21,23.37,6.42-.17,3.4-19,2.44-21.48,2.28a74.7,74.7,0,0,1-13-1.9c-2.36-.58-6.13-1.29-7.56-3.44-4.51-6.8,12.39-6.44,14.9-6.22a67.49,67.49,0,0,1,23.54,6.64c6.91,3.36,13-7,6-10.36Z"/><path class="cls-2" d="M863.38,644c-13.71-9.07-29.63-13.53-45.55-16.9-7.13-1.51-15.48-4.32-22.64-1.75A13.32,13.32,0,0,0,786.62,642c2.2,7.17,8.87,10.85,15.71,12.62,8.45,2.18,17.12,3.76,25.66,5.59,12.76,2.74,30.18,2.67,32.54-13.87,1.21-8.49-3-16.18-9.76-21.11-7.8-5.68-17.52-6.66-26.85-7.41v12a50,50,0,0,1,24.32,2.76c4.17,1.62,17.65,7.6,15.44,13.92-1.85,5.28-13.11,4.12-17.18,3.69a51.46,51.46,0,0,1-23.22-8.77c-6.43-4.32-12.44,6.07-6.06,10.36a62.42,62.42,0,0,0,33.43,10.64c9.47.2,21.47-2.33,24.6-12.73,3.43-11.4-7.48-20.69-16.38-25.37a59.79,59.79,0,0,0-35-6.5c-7.57.92-7.84,11.37,0,12,6.8.55,14.53,1,20.18,5.31,3.8,2.9,7.35,9.93,2.26,13.49-4.31,3-11.46.82-16.09-.18-7.28-1.57-14.56-3.11-21.83-4.73-2.7-.6-6.11-1-8.39-2.76-1.93-1.46-3.18-3.49-.32-4.45s7.08.58,9.91,1.16c3.34.68,6.67,1.37,10,2.12,13.29,3,26.24,7,37.69,14.61,6.46,4.27,12.48-6.12,6.06-10.37Z"/></svg>