<?xml version="1.0" encoding="UTF-8"?>
<!-- Generator: visioncortex VTracer 0.6.12 -->
<svg version="1.1" xmlns="http://www.w3.org/2000/svg" width="192" height="192" viewBox="0 0 192 192">
<path d="M0 0 C3.698 2.769 6.874 5.425 9.426 9.316 C9.426 9.976 9.426 10.636 9.426 11.316 C9.724 11.299 9.724 11.299 11.234 11.211 C29.938 10.627 50.707 15.508 64.699 28.441 C69.252 33.386 71.186 39.009 71.574 45.68 C71.01 55.7 65.575 62.721 58.426 69.316 C43.158 82.257 24.166 87.698 4.426 86.316 C-9.542 84.652 -21.382 77.46 -33.012 70.004 C-46.327 61.506 -58.166 60.821 -73.863 62.051 C-85.872 62.91 -97.891 63.513 -107.574 55.316 C-110.98 51.642 -111.865 47.944 -112.137 43.004 C-111.803 35.164 -108.648 28.971 -103.074 23.504 C-94.658 16.736 -83.817 14.196 -73.223 14.211 C-72.042 14.196 -70.861 14.181 -69.645 14.166 C-67.173 14.141 -64.702 14.136 -62.23 14.15 C-58.91 14.09 -55.829 13.977 -52.574 13.316 C-49.934 10.488 -49.934 10.488 -48.574 7.316 C-36.684 -7.383 -15.814 -10.343 0 0 Z " fill="#FDFBFB" transform="translate(117.57421875,78.68359375)"/>
<path d="M0 0 C3.698 2.769 6.874 5.425 9.426 9.316 C9.426 9.976 9.426 10.636 9.426 11.316 C9.724 11.299 9.724 11.299 11.234 11.211 C29.938 10.627 50.707 15.508 64.699 28.441 C69.252 33.386 71.186 39.009 71.574 45.68 C71.01 55.7 65.575 62.721 58.426 69.316 C43.158 82.257 24.166 87.698 4.426 86.316 C-9.542 84.652 -21.382 77.46 -33.012 70.004 C-46.327 61.506 -58.166 60.821 -73.863 62.051 C-85.872 62.91 -97.891 63.513 -107.574 55.316 C-110.98 51.642 -111.865 47.944 -112.137 43.004 C-111.803 35.164 -108.648 28.971 -103.074 23.504 C-94.658 16.736 -83.817 14.196 -73.223 14.211 C-72.042 14.196 -70.861 14.181 -69.645 14.166 C-67.173 14.141 -64.702 14.136 -62.23 14.15 C-58.91 14.09 -55.829 13.977 -52.574 13.316 C-49.934 10.488 -49.934 10.488 -48.574 7.316 C-36.684 -7.383 -15.814 -10.343 0 0 Z M13.426 18.316 C13.472 19.413 13.519 20.51 13.566 21.641 C13.604 23.095 13.64 24.549 13.676 26.004 C13.709 26.725 13.743 27.446 13.777 28.189 C13.846 31.961 13.683 33.886 11.703 37.199 C9.391 39.349 7.682 40.418 4.738 41.504 C3.951 41.807 3.163 42.11 2.352 42.422 C-5.793 44.912 -13.364 45.704 -21.887 45.691 C-22.994 45.69 -24.101 45.688 -25.241 45.687 C-33.029 45.569 -39.57 44.975 -46.574 41.316 C-46.898 41.149 -46.898 41.149 -48.539 40.301 C-51.696 38.429 -53.249 36.687 -54.574 33.316 C-54.859 31.242 -55.063 29.156 -55.199 27.066 C-55.274 25.989 -55.349 24.911 -55.426 23.801 C-55.475 22.981 -55.524 22.161 -55.574 21.316 C-59.553 21.258 -63.532 21.223 -67.512 21.191 C-68.629 21.175 -69.746 21.158 -70.896 21.141 C-81.884 21.076 -89.927 22.211 -98.574 29.316 C-102.54 33.32 -104.725 36.451 -104.887 42.129 C-104.85 45.739 -104.689 47.12 -102.824 50.316 C-96.45 55.983 -88.604 55.455 -80.492 55.309 C-78.738 55.291 -76.983 55.274 -75.229 55.258 C-72.497 55.227 -69.765 55.191 -67.034 55.145 C-54.17 54.938 -44.105 55.242 -32.762 62.004 C-32.176 62.348 -31.589 62.693 -30.985 63.048 C-28.007 64.81 -25.066 66.628 -22.141 68.477 C-8.021 77.374 5.895 81.867 22.696 78.918 C36.575 75.763 51.711 69.434 60.363 57.629 C63.896 51.956 65.491 48.052 64.426 41.316 C60.939 32.74 54.187 27.922 46.051 24.129 C35.578 19.866 24.705 18.089 13.426 18.316 Z " fill="#7B2722" transform="translate(117.57421875,78.68359375)"/>
<path d="M0 0 C7.166 4.266 13.229 10.97 15.5 19.062 C15.968 22.489 16.358 25.693 15.5 29.062 C8.678 36.023 -2.389 37.22 -11.733 37.488 C-22.308 37.539 -32.978 36.972 -41.5 30.062 C-42.5 29.062 -42.5 29.062 -42.938 25.25 C-42.846 18.093 -39.429 11.483 -34.824 6.105 C-33.129 4.566 -31.419 3.309 -29.5 2.062 C-28.952 1.653 -28.404 1.243 -27.84 0.82 C-20.203 -4.047 -8.06 -3.593 0 0 Z " fill="#F9C25C" transform="translate(110.5,81.9375)"/>
<path d="M0 0 C0.402 0.01 0.402 0.01 2.438 0.062 C5.699 9.119 7.553 15.715 4.438 25.062 C4.231 28.702 4.204 31.445 5.5 34.875 C7.578 41.94 5.715 49.624 2.438 56.062 C-0.188 57.125 -0.188 57.125 -2.562 57.062 C-4.443 55.182 -3.686 52.564 -3.695 50.07 C-3.562 48.062 -3.562 48.062 -2.562 45.062 C-2.47 43.544 -2.432 42.021 -2.438 40.5 C-2.435 39.715 -2.432 38.93 -2.43 38.121 C-2.562 36.062 -2.562 36.062 -3.562 34.062 C-3.659 32.252 -3.692 30.438 -3.688 28.625 C-3.69 27.657 -3.693 26.689 -3.695 25.691 C-3.562 23.062 -3.562 23.062 -2.562 20.062 C-2.47 18.544 -2.432 17.021 -2.438 15.5 C-2.435 14.715 -2.432 13.93 -2.43 13.121 C-2.562 11.062 -2.562 11.062 -3.562 9.062 C-3.75 6.372 -3.648 3.766 -3.562 1.062 C-2.562 0.062 -2.562 0.062 0 0 Z " fill="#843631" transform="translate(84.5625,11.9375)"/>
<path d="M0 0 C2.625 1.062 2.625 1.062 4.375 4.5 C7.156 13.481 7.103 21.238 3.625 30.062 C2.965 30.722 2.305 31.382 1.625 32.062 C-1 31.688 -1 31.688 -3.375 31.062 C-3.5 23.438 -3.5 23.438 -2.375 20.062 C-2.242 18.125 -2.242 18.125 -2.25 16.062 C-2.247 15.382 -2.245 14.701 -2.242 14 C-2.375 12.062 -2.375 12.062 -3.375 9.062 C-3.553 6.37 -3.462 3.768 -3.375 1.062 C-2.375 0.062 -2.375 0.062 0 0 Z " fill="#853733" transform="translate(107.375,36.9375)"/>
<path d="M0 0 C2.5 1.5 2.5 1.5 4 3 C3 6 3 6 1.312 7.188 C-1.658 8.231 -3.869 8.326 -7 8 C-9.375 6.5 -9.375 6.5 -11 5 C-10.625 3.062 -10.625 3.062 -10 1 C-6.823 -0.589 -3.46 -0.41 0 0 Z " fill="#FBC969" transform="translate(161,117)"/>
<path d="M0 0 C2.5 1.5 2.5 1.5 4 3 C3.67 3.99 3.34 4.98 3 6 C0.522 7.239 -1.237 7.167 -4 7.188 C-4.443 7.195 -4.443 7.195 -6.688 7.23 C-9 7 -9 7 -11 5 C-10.75 2.938 -10.75 2.938 -10 1 C-6.823 -0.589 -3.46 -0.41 0 0 Z " fill="#FBC764" transform="translate(148,124)"/>
<path d="M0 0 C0.99 0.66 1.98 1.32 3 2 C3 3.32 3 4.64 3 6 C0.522 7.239 -1.237 7.167 -4 7.188 C-4.443 7.195 -4.443 7.195 -6.688 7.23 C-9 7 -9 7 -11 5 C-10.75 2.938 -10.75 2.938 -10 1 C-6.873 -0.564 -3.42 -0.4 0 0 Z " fill="#FBC663" transform="translate(163,130)"/>
</svg>
